<svg width="64" height="64" viewBox="0 0 64 64" fill="none" xmlns="http://www.w3.org/2000/svg">
<g filter="url(#filter0_d_6618_3016)">
<rect x="4" width="56" height="56" rx="8" fill="#D9E7FF" fill-opacity="0.12" shape-rendering="crispEdges"/>
<path d="M26 37C24.9 37 23.9583 36.6083 23.175 35.825C22.3917 35.0417 22 34.1 22 33C22 31.9 22.3917 30.9583 23.175 30.175C23.9583 29.3917 24.9 29 26 29C27.1 29 28.0417 29.3917 28.825 30.175C29.6083 30.9583 30 31.9 30 33C30 34.1 29.6083 35.0417 28.825 35.825C28.0417 36.6083 27.1 37 26 37ZM38 37C36.9 37 35.9583 36.6083 35.175 35.825C34.3917 35.0417 34 34.1 34 33C34 31.9 34.3917 30.9583 35.175 30.175C35.9583 29.3917 36.9 29 38 29C39.1 29 40.0417 29.3917 40.825 30.175C41.6083 30.9583 42 31.9 42 33C42 34.1 41.6083 35.0417 40.825 35.825C40.0417 36.6083 39.1 37 38 37ZM32 27C30.9 27 29.9583 26.6083 29.175 25.825C28.3917 25.0417 28 24.1 28 23C28 21.9 28.3917 20.9583 29.175 20.175C29.9583 19.3917 30.9 19 32 19C33.1 19 34.0417 19.3917 34.825 20.175C35.6083 20.9583 36 21.9 36 23C36 24.1 35.6083 25.0417 34.825 25.825C34.0417 26.6083 33.1 27 32 27Z" fill="white"/>
</g>
<defs>
<filter id="filter0_d_6618_3016" x="0" y="0" width="64" height="64" filterUnits="userSpaceOnUse" color-interpolation-filters="sRGB">
<feFlood flood-opacity="0" result="BackgroundImageFix"/>
<feColorMatrix in="SourceAlpha" type="matrix" values="0 0 0 0 0 0 0 0 0 0 0 0 0 0 0 0 0 0 127 0" result="hardAlpha"/>
<feOffset dy="4"/>
<feGaussianBlur stdDeviation="2"/>
<feComposite in2="hardAlpha" operator="out"/>
<feColorMatrix type="matrix" values="0 0 0 0 0 0 0 0 0 0 0 0 0 0 0 0 0 0 0.25 0"/>
<feBlend mode="normal" in2="BackgroundImageFix" result="effect1_dropShadow_6618_3016"/>
<feBlend mode="normal" in="SourceGraphic" in2="effect1_dropShadow_6618_3016" result="shape"/>
</filter>
</defs>
</svg>
