<svg width="806" height="156" viewBox="0 0 806 156" fill="none" xmlns="http://www.w3.org/2000/svg">
<g clip-path="url(#clip0_36_20734)">
<path fill-rule="evenodd" clip-rule="evenodd" d="M65.31 96.44L38.02 96.32L81.77 23.6L68.16 0L0 117.96L31.37 118.16L22.61 155.17L65.31 96.44ZM64.18 118.16H136.38L88.55 35.37L75.3 57.42L98.66 96.4H79.99L74.9 103.4L64.18 118.16Z" fill="#2557F9"/>
<path fill-rule="evenodd" clip-rule="evenodd" d="M455.89 47.7501C455.65 40.2001 451.61 36.5901 443.34 36.5901H410.18V96.2301H423.12V47.6801H441.18C442.18 47.6801 442.7 47.9201 442.88 48.5601C442.927 48.6814 442.955 48.8099 442.96 48.9401C442.97 49.0665 442.97 49.1936 442.96 49.3201V64.0101C442.971 64.1599 442.971 64.3103 442.96 64.4601C442.87 65.4601 442.4 65.7801 441.18 65.7801H424.01L441.59 96.2301H455.52L444.28 76.7601H444.67C452.04 76.4201 455.67 72.8201 455.89 65.6701C455.905 65.4137 455.905 65.1566 455.89 64.9001V48.5201C455.905 48.2637 455.905 48.0065 455.89 47.7501ZM216.02 96.2301H184.13C175.59 96.2301 171.55 92.4001 171.55 84.3101V48.5201C171.55 40.4301 175.55 36.6001 184.13 36.6001H216.02V47.8401H186.29C184.94 47.8401 184.49 48.2701 184.49 49.5401V83.2301C184.49 84.5101 184.94 84.9301 186.29 84.9301H216.02V96.2301ZM227.89 84.2901V48.5201C227.89 40.4301 231.89 36.6001 240.47 36.6001H263.57C272.1 36.6001 276.14 40.4301 276.14 48.5201V84.2901C276.14 92.3801 272.14 96.2101 263.57 96.2101H240.47C231.89 96.2301 227.89 92.3801 227.89 84.2901ZM261.41 84.9701C262.76 84.9701 263.21 84.5501 263.21 83.2701V49.5401C263.21 48.2701 262.76 47.8401 261.41 47.8401H242.59C241.24 47.8401 240.79 48.2701 240.79 49.5401V83.2301C240.79 84.5101 241.24 84.9301 242.59 84.9301L261.41 84.9701ZM306.15 36.6001H290.68V96.2301H303.26V56.2301L325.97 96.2301H340.55V36.6001H327.97V75.2001L306.15 36.6001ZM368.89 47.6701H351.79V36.6001H398.89V47.6701H381.81V96.2301H368.89V47.6701ZM482.29 83.2301H503.89L507.69 96.2301H521.89L502.76 36.6001H483.89L464.77 96.2301H478.43L482.29 83.2301ZM493.11 46.9901L500.56 71.9901H485.65L493.11 46.9901ZM532.36 36.6001H574.68V47.8401H545.3V60.7001H569.11V71.7701H545.3V96.2301H532.36V36.6001ZM584.13 48.5201V84.2901C584.13 92.3801 588.17 96.2301 596.71 96.2101H619.8C628.38 96.2101 632.38 92.3801 632.38 84.2901V48.5201C632.38 40.4301 628.34 36.6001 619.8 36.6001H596.71C588.13 36.6001 584.13 40.4301 584.13 48.5201ZM619.44 83.2701C619.44 84.5501 618.99 84.9701 617.65 84.9701L598.89 84.9301C597.54 84.9301 597.09 84.5101 597.09 83.2301V49.5401C597.09 48.2701 597.54 47.8401 598.89 47.8401H617.65C618.99 47.8401 619.44 48.2701 619.44 49.5401V83.2701ZM763.56 36.6001H805.89V47.8401H776.5V60.2301H800.32V71.2301H776.5V84.9401H805.89V96.2301H763.56V36.6001ZM718.31 96.2301H750.21V84.9301H720.47C719.12 84.9301 718.67 84.5101 718.67 83.2301V49.5401C718.67 48.2701 719.12 47.8401 720.47 47.8401H750.21V36.6001H718.31C709.78 36.6001 705.73 40.4301 705.73 48.5201V84.3101C705.73 92.4001 709.78 96.2301 718.31 96.2301ZM680.34 36.5901C688.61 36.5901 692.66 40.2001 692.89 47.7501C692.895 48.0071 692.885 48.2642 692.86 48.5201V64.9001C692.875 65.1566 692.875 65.4137 692.86 65.6701C692.64 72.8201 689.01 76.4201 681.64 76.7601H681.25L692.49 96.2301H678.56L661.01 65.7801H678.18C679.4 65.7801 679.87 65.4601 679.97 64.4601V64.0101V49.3201V48.9401C679.955 48.8112 679.928 48.684 679.89 48.5601C679.7 47.9201 679.18 47.6801 678.18 47.6801H660.13V96.2301H647.18V36.5901H680.34Z" fill="white"/>
</g>
<defs>
<clipPath id="clip0_36_20734">
<rect width="805.89" height="155.17" fill="white"/>
</clipPath>
</defs>
</svg>
